<?xml version="1.0" encoding="UTF-8" standalone="no"?>
<svg
   xmlns:dc="http://purl.org/dc/elements/1.1/"
   xmlns:cc="http://creativecommons.org/ns#"
   xmlns:rdf="http://www.w3.org/1999/02/22-rdf-syntax-ns#"
   xmlns:svg="http://www.w3.org/2000/svg"
   xmlns="http://www.w3.org/2000/svg"
   xmlns:sodipodi="http://sodipodi.sourceforge.net/DTD/sodipodi-0.dtd"
   xmlns:inkscape="http://www.inkscape.org/namespaces/inkscape"
   width="14"
   height="14"
   viewBox="0 0 14 14"
   id="svg2"
   version="1.1"
   inkscape:version="0.91 r13725"
   sodipodi:docname="bitcoin.svg">
  <metadata
     id="metadata10">
    <rdf:RDF>
      <cc:Work
         rdf:about="">
        <dc:format>image/svg+xml</dc:format>
        <dc:type
           rdf:resource="http://purl.org/dc/dcmitype/StillImage" />
        <dc:title></dc:title>
      </cc:Work>
    </rdf:RDF>
  </metadata>
  <defs
     id="defs8" />
  <sodipodi:namedview
     pagecolor="#ffffff"
     bordercolor="#666666"
     borderopacity="1"
     objecttolerance="10"
     gridtolerance="10"
     guidetolerance="10"
     inkscape:pageopacity="0"
     inkscape:pageshadow="2"
     inkscape:window-width="1306"
     inkscape:window-height="695"
     id="namedview6"
     showgrid="false"
     fit-margin-top="0"
     fit-margin-left="0"
     fit-margin-right="0"
     fit-margin-bottom="0"
     inkscape:zoom="9.8333333"
     inkscape:cx="10"
     inkscape:cy="9.0283051"
     inkscape:window-x="77"
     inkscape:window-y="0"
     inkscape:window-maximized="0"
     inkscape:current-layer="svg2" />
  <path
     d="M 8.7577,8.452 C 8.7577,9.344 7.738,9.5 6.2503,9.5 l 0,-2.0860003 c 1.4058,0 2.5074,0.081 2.5074,1.0380003 z M 14,2 14,12 c 0,1.104 -0.8064,2 -1.8,2 L 1.8,14 C 0.8064,14 0,13.104 0,12 L 0,2 C 0,0.896 0.8064,0 1.8,0 L 12.2,0 C 13.1936,0 14,0.896 14,2 Z m -3.625,6.326 c 0,-1.0660003 -0.7794,-1.5280003 -1.3419,-1.6870003 0.4635,-0.186 1.0017,-0.948 0.7848,-1.857 -0.1836,-0.768 -0.8244,-1.45 -2.4426,-1.51 l 0,-1.272 -0.7497,0 0,1.25 -0.3753,0 0,-1.25 -0.7497,0 0,1.25 -1.8756,0 0,1.25 0.6129,0 c 0.3303,0 0.5121,0.238 0.5121,0.585 L 4.75,8.789 C 4.75,9.146 4.5601,9.5 4.2289,9.5 l -0.405,0 -0.1872,1.241 1.863,0 0,1.259 0.7497,0 0,-1.259 0.3753,0 0,1.259 0.7497,0 0,-1.25 c 1.9926,0 3.0006,-0.972 3.0006,-2.424 z M 8.3419,5.5419997 c 0,-0.833 -0.7794,-1.042 -2.0916,-1.042 l 0,2.083 c 0.8289,0 2.0916,-0.065 2.0916,-1.041 z"
     id="path4"
     inkscape:connector-curvature="0"
     sodipodi:nodetypes="sccsssssssssssccccccccccccssssccccccccccssccs" />
</svg>
