<?xml version="1.0" encoding="UTF-8" standalone="no"?>
<svg
   xmlns:dc="http://purl.org/dc/elements/1.1/"
   xmlns:cc="http://creativecommons.org/ns#"
   xmlns:rdf="http://www.w3.org/1999/02/22-rdf-syntax-ns#"
   xmlns:svg="http://www.w3.org/2000/svg"
   xmlns="http://www.w3.org/2000/svg"
   xmlns:sodipodi="http://sodipodi.sourceforge.net/DTD/sodipodi-0.dtd"
   xmlns:inkscape="http://www.inkscape.org/namespaces/inkscape"
   class="icon"
   height="386.45001"
   viewBox="0 0 383.04999 772.90002"
   version="1.1"
   id="svg2"
   inkscape:version="0.91 r13725"
   sodipodi:docname="gschl-white.svg"
   width="383.04999">
  <metadata
     id="metadata12">
    <rdf:RDF>
      <cc:Work
         rdf:about="">
        <dc:format>image/svg+xml</dc:format>
        <dc:type
           rdf:resource="http://purl.org/dc/dcmitype/StillImage" />
        <dc:title />
      </cc:Work>
    </rdf:RDF>
  </metadata>
  <defs
     id="defs10" />
  <sodipodi:namedview
     pagecolor="#ffffff"
     bordercolor="#666666"
     borderopacity="1"
     objecttolerance="10"
     gridtolerance="10"
     guidetolerance="10"
     inkscape:pageopacity="0"
     inkscape:pageshadow="2"
     inkscape:window-width="1076"
     inkscape:window-height="574"
     id="namedview8"
     showgrid="false"
     fit-margin-top="0"
     fit-margin-left="0"
     fit-margin-right="0"
     fit-margin-bottom="0"
     inkscape:zoom="0.30273438"
     inkscape:cx="-184.53668"
     inkscape:cy="198.64999"
     inkscape:window-x="109"
     inkscape:window-y="3"
     inkscape:window-maximized="0"
     inkscape:current-layer="svg2" />
  <path
     d="m 234.97501,479.8 c -3.9,-0.5 -9.9,-0.7 -18,-0.7 -13,0 -25.8,0.9 -38.5,2.6 -12.6,1.7 -25.8,4.8 -39.4,9.2 -13.6,4.4 -25.5,10.1 -35.7,16.9 -10.200004,6.9 -18.600004,16 -25.200004,27.4 -6.6,11.4 -9.9,24.4 -9.9,38.8 0,13.7 2.9,26.3 8.6,37.5 5.8,11.3 13.3,20.6 22.5,27.8 9.200004,7.2 19.900004,13.4 32.000004,18.4 12.1,5 24.4,8.6 36.8,10.7 12.4,2.1 24.8,3.1 37.4,3.1 14.2,0 27.9,-1.6 41,-4.8 13.1,-3.2 25.3,-8 36.4,-14.4 11.2,-6.4 20.1,-15.3 26.9,-26.9 6.7,-11.5 10.1,-24.9 10.1,-40.1 0,-6.1 -0.9,-12.1 -2.6,-18 -1.7,-5.9 -3.5,-11 -5.3,-15.5 -1.8,-4.4 -5.2,-9.5 -9.9,-15.3 -4.8,-5.8 -8.4,-10.1 -10.9,-12.9 -2.5,-2.8 -7.2,-7.1 -14.2,-12.7 -7,-5.6 -11.5,-9.2 -13.4,-10.7 -2,-1.5 -7.1,-5.2 -15.3,-11 -8.2,-5.8 -12.7,-9 -13.4,-9.4 z m 18,-303.9 c -7.6,-15.3 -17.9,-28 -30.9,-38.1 -13,-10.1 -27.4,-15.1 -43.1,-15.1 -10.3,0 -20.4,2.4 -30.4,7.2 -9.9,4.8 -18.1,11.2 -24.5,19.3 -11.3,14.5 -16.9,34.1 -16.9,58.9 0,11.3 1.2,23.2 3.7,35.9 2.5,12.6 6.3,25.3 11.6,37.9 5.3,12.6 11.7,24 19.1,34 7.5,10.1 16.7,18.3 27.6,24.7 10.9,6.4 22.8,9.6 35.5,9.6 9.1,0 18.6,-2 28.5,-6.1 9.9,-4 18,-9.4 24.1,-16 13,-13.7 19.5,-33.2 19.5,-58.5 0,-14.5 -2.1,-29.9 -6.3,-46.2 -4,-16.3 -9.9,-32.1 -17.5,-47.5 z"
     fill=""
     id="path4"
     inkscape:connector-curvature="0"
     style="fill:#ffffff;fill-opacity:1" />
  <path
     d="m 494.57501,0 -606.1,0 c -44,0 -80,36 -80,80 l 0,612.9 c 0,44 36,80 80,80 l 606.1,0 c 44,0 80,-36 80,-80 l 0,-612.9 c 0,-44 -36,-80 -80,-80 z m -41.8,71.1 c 0,0 -18.7,22.8 4.2,64.4 0,0 4.2,13.1 3.5,21.5 0,0 -7.5,39.4 0.1,74 0,0 8.9,108.7 0.5,127.3 0,0 -3.4,24.9 -27.6,20.1 0,0 -22.1,0 -21.5,-42.2 0,0 -2.8,-28.4 0,-82.4 0,0 4.2,-42.9 2.8,-69.9 0,0 -4.2,-33.2 1.4,-45 0,0 13.8,-18.7 11.1,-47.1 l -0.5,-1.9 -98.7,77.4 c 1.3,2.2 2.6,4.3 3.8,6.5 9.3,17.2 14,36.8 14,58.9 0,17.7 -3,33.6 -9,47.7 -6,14.1 -13.3,25.5 -21.9,34.2 -8.6,8.7 -17.1,16.7 -25.6,23.9 -8.5,7.2 -15.7,14.8 -21.7,22.6 -6,7.9 -9,15.9 -9,24.3 0,8.8 3.9,17.5 11.8,25.9 7.9,8.5 17.3,16.8 28.3,25 11,8.2 22.1,17.2 33.3,27.1 11.2,9.8 20.7,22.6 28.5,38.3 7.9,15.7 11.8,33.1 11.8,52.3 0,22.3 -6,43.6 -18,63.7 -17.4,29.9 -43.1,52 -77.1,66.1 -34,14.1 -70.6,21.2 -109.9,21.2 -32.4,0 -62.6,-5.1 -90.700004,-15.3 -28.1,-10.2 -49.3,-27.1 -63.5,-50.6 -8.7999999,-14.5 -13.2999999,-30.5 -13.2999999,-48.2 0,-19.9 5.5,-38.3 16.3999999,-55.2 10.9,-16.9 25.5,-31 43.6,-42.3 32,-20.1 81.600004,-32.4 148.600004,-36.8 -7.9,-10.1 -13.7,-19.1 -17.5,-27.1 -3.8,-8 -5.7,-17 -5.7,-27.1 0,-9.8 2.6,-20.2 7.7,-31.3 -11.3,1 -19.6,1.5 -25,1.5 -36.3,0 -66.9,-11.8 -91.800004,-35.5 -24.9,-23.7 -37.4,-53.7 -37.4,-90 0,-4.3 0.2,-8.5 0.6,-12.7 l -138.9,0 217.300004,-188.2 364.7,0 -31.4,24.6 1.7,0.3 z"
     fill=""
     id="path6"
     inkscape:connector-curvature="0"
     style="fill:#ffffff;fill-opacity:1" />
</svg>
