<?xml version="1.0" encoding="UTF-8" standalone="no"?>
<!-- Generator: Adobe Illustrator 16.0.0, SVG Export Plug-In . SVG Version: 6.00 Build 0)  -->

<svg
   xmlns:dc="http://purl.org/dc/elements/1.1/"
   xmlns:cc="http://creativecommons.org/ns#"
   xmlns:rdf="http://www.w3.org/1999/02/22-rdf-syntax-ns#"
   xmlns:svg="http://www.w3.org/2000/svg"
   xmlns="http://www.w3.org/2000/svg"
   xmlns:sodipodi="http://sodipodi.sourceforge.net/DTD/sodipodi-0.dtd"
   xmlns:inkscape="http://www.inkscape.org/namespaces/inkscape"
   version="1.1"
   id="Capa_1"
   x="0px"
   y="0px"
   width="563.27399"
   height="568.034"
   viewBox="0 0 563.27399 568.034"
   xml:space="preserve"
   inkscape:version="0.91 r13725"
   sodipodi:docname="gthb-white.svg"><metadata
     id="metadata43"><rdf:RDF><cc:Work
         rdf:about=""><dc:format>image/svg+xml</dc:format><dc:type
           rdf:resource="http://purl.org/dc/dcmitype/StillImage" /><dc:title></dc:title></cc:Work></rdf:RDF></metadata><defs
     id="defs41" /><sodipodi:namedview
     pagecolor="#ffffff"
     bordercolor="#666666"
     borderopacity="1"
     objecttolerance="10"
     gridtolerance="10"
     guidetolerance="10"
     inkscape:pageopacity="0"
     inkscape:pageshadow="2"
     inkscape:window-width="699"
     inkscape:window-height="480"
     id="namedview39"
     showgrid="false"
     inkscape:zoom="0.41546809"
     inkscape:cx="-500.6142"
     inkscape:cy="284.017"
     inkscape:window-x="82"
     inkscape:window-y="5"
     inkscape:window-maximized="0"
     inkscape:current-layer="Capa_1"
     fit-margin-top="0"
     fit-margin-left="0"
     fit-margin-right="0"
     fit-margin-bottom="0" /><g
     id="g3"
     style="fill:#ffffff;fill-opacity:1"
     transform="translate(-2.381,0)"><g
       id="g5"
       style="fill:#ffffff;fill-opacity:1"><path
         d="M 550.99,0 17.051,0 C 8.948,0 2.381,6.567 2.381,14.67 l 0,538.694 c 0,8.104 6.567,14.67 14.67,14.67 l 177.498,0 0,-0.129 c 8.011,-0.092 14.149,-4.577 14.431,-12.166 0.728,-19.725 0.214,-39.492 0.214,-58.562 -14.296,0.667 -27.944,2.473 -41.438,1.695 -29.762,-1.714 -52.632,-14.413 -64.493,-43.556 -7.026,-17.265 -17.613,-32.032 -34.101,-41.886 -3.079,-1.842 -5.771,-4.554 -8.127,-7.308 -3.079,-3.592 -2.503,-7.282 2.362,-8.268 4.908,-0.998 10.27,-1.695 15.11,-0.79 19.009,3.568 32.154,15.49 42.216,31.347 19.896,31.371 50.521,40.974 84.976,26.487 1.921,-0.808 4.363,-2.766 4.725,-4.553 2.778,-13.887 7.968,-26.549 18.427,-37.65 -11.628,-2.154 -22.399,-3.739 -32.962,-6.188 -30.417,-7.038 -57.742,-19.7 -77.724,-44.848 C 101.862,341.145 94.407,317.131 90.98,291.573 85.613,251.542 90.417,214.07 117.908,182.08 c 1.389,-1.616 2.142,-4.927 1.524,-6.94 -6.885,-22.497 -5.833,-44.805 0.991,-67.051 3.581,-11.683 4.578,-12.265 16.5,-10.637 0.729,0.098 1.438,0.281 2.161,0.404 23.898,3.954 44.468,15.526 64.731,27.95 2.724,1.671 6.873,2.711 9.866,1.983 48.397,-11.744 96.702,-11.695 145.093,0.043 2.809,0.679 6.561,-0.288 9.247,-1.695 11.016,-5.759 21.561,-12.454 32.718,-17.914 12.98,-6.346 26.652,-11.12 41.371,-10.857 2.576,0.049 6.561,2.509 7.423,4.786 8.856,23.464 10.723,47.375 3.666,71.794 -0.753,2.607 0.367,6.322 1.769,8.892 6.965,12.779 16.689,24.572 21.096,38.127 13.434,41.316 8.538,82.229 -9.749,121.06 -16.757,35.594 -47.834,53.63 -84.621,62.933 -12.424,3.14 -25.153,5.049 -38.556,7.681 17.564,18.348 20.318,40.74 20.006,64.192 -0.324,24.192 -0.238,48.391 -0.251,72.589 -0.006,11.72 5.11,18.195 14.039,18.574 -0.006,0.037 188.723,0.037 188.723,0.037 l 0,-553.361 C 565.653,6.567 559.087,0 550.99,0 Z"
         id="path7"
         style="fill:#ffffff;fill-opacity:1"
         inkscape:connector-curvature="0" /></g></g><g
     id="g9"
     transform="translate(-2.381,0)" /><g
     id="g11"
     transform="translate(-2.381,0)" /><g
     id="g13"
     transform="translate(-2.381,0)" /><g
     id="g15"
     transform="translate(-2.381,0)" /><g
     id="g17"
     transform="translate(-2.381,0)" /><g
     id="g19"
     transform="translate(-2.381,0)" /><g
     id="g21"
     transform="translate(-2.381,0)" /><g
     id="g23"
     transform="translate(-2.381,0)" /><g
     id="g25"
     transform="translate(-2.381,0)" /><g
     id="g27"
     transform="translate(-2.381,0)" /><g
     id="g29"
     transform="translate(-2.381,0)" /><g
     id="g31"
     transform="translate(-2.381,0)" /><g
     id="g33"
     transform="translate(-2.381,0)" /><g
     id="g35"
     transform="translate(-2.381,0)" /><g
     id="g37"
     transform="translate(-2.381,0)" /></svg>