<?xml version="1.0" encoding="UTF-8" standalone="no"?>
<svg
   xmlns:dc="http://purl.org/dc/elements/1.1/"
   xmlns:cc="http://creativecommons.org/ns#"
   xmlns:rdf="http://www.w3.org/1999/02/22-rdf-syntax-ns#"
   xmlns:svg="http://www.w3.org/2000/svg"
   xmlns="http://www.w3.org/2000/svg"
   xmlns:sodipodi="http://sodipodi.sourceforge.net/DTD/sodipodi-0.dtd"
   xmlns:inkscape="http://www.inkscape.org/namespaces/inkscape"
   height="32px"
   id="Layer_1"
   version="1.1"
   viewBox="0 0 32 32"
   width="32px"
   xml:space="preserve"
   inkscape:version="0.91 r13725"
   sodipodi:docname="hmbgr-white.svg"
   style="enable-background:new 0 0 32 32;"><metadata
     id="metadata9"><rdf:RDF><cc:Work
         rdf:about=""><dc:format>image/svg+xml</dc:format><dc:type
           rdf:resource="http://purl.org/dc/dcmitype/StillImage" /><dc:title></dc:title></cc:Work></rdf:RDF></metadata><defs
     id="defs7" /><sodipodi:namedview
     pagecolor="#ffffff"
     bordercolor="#666666"
     borderopacity="1"
     objecttolerance="10"
     gridtolerance="10"
     guidetolerance="10"
     inkscape:pageopacity="0"
     inkscape:pageshadow="2"
     inkscape:window-width="941"
     inkscape:window-height="607"
     id="namedview5"
     showgrid="false"
     inkscape:zoom="7.375"
     inkscape:cx="13.661017"
     inkscape:cy="10"
     inkscape:window-x="349"
     inkscape:window-y="20"
     inkscape:window-maximized="0"
     inkscape:current-layer="Layer_1" /><path
     d="m 8.2857143,11.8 15.4285707,0 C 24.424,11.8 25,11.1728 25,10.4 25,9.6272 24.424,9 23.714285,9 L 8.2857143,9 C 7.576,9 7,9.6272 7,10.4 c 0,0.7728 0.576,1.4 1.2857143,1.4 z m 15.4285707,2.8 -15.4285707,0 C 7.576,14.6 7,15.2272 7,16 c 0,0.7728 0.576,1.400001 1.2857143,1.400001 l 15.4285707,0 C 24.424,17.400001 25,16.7728 25,16 25,15.2272 24.424,14.6 23.714285,14.6 Z m 0,5.6 -15.4285707,0 C 7.576,20.2 7,20.827201 7,21.600001 7,22.372801 7.576,23 8.2857143,23 L 23.714285,23 C 24.424,23 25,22.372801 25,21.600001 25,20.827201 24.424,20.2 23.714285,20.2 Z"
     id="path3"
     style="fill:#ffffff;fill-opacity:1"
     inkscape:connector-curvature="0" /></svg>