<?xml version="1.0" encoding="UTF-8" standalone="no"?>
<svg
   xmlns:dc="http://purl.org/dc/elements/1.1/"
   xmlns:cc="http://creativecommons.org/ns#"
   xmlns:rdf="http://www.w3.org/1999/02/22-rdf-syntax-ns#"
   xmlns:svg="http://www.w3.org/2000/svg"
   xmlns="http://www.w3.org/2000/svg"
   xmlns:sodipodi="http://sodipodi.sourceforge.net/DTD/sodipodi-0.dtd"
   xmlns:inkscape="http://www.inkscape.org/namespaces/inkscape"
   width="213.29033"
   height="120"
   viewBox="0 0 213.29033 120"
   version="1.1"
   id="svg2"
   inkscape:version="0.91 r13725"
   sodipodi:docname="lilt.svg">
  <metadata
     id="metadata24">
    <rdf:RDF>
      <cc:Work
         rdf:about="">
        <dc:format>image/svg+xml</dc:format>
        <dc:type
           rdf:resource="http://purl.org/dc/dcmitype/StillImage" />
        <dc:title></dc:title>
      </cc:Work>
    </rdf:RDF>
  </metadata>
  <defs
     id="defs22" />
  <sodipodi:namedview
     pagecolor="#ffffff"
     bordercolor="#666666"
     borderopacity="1"
     objecttolerance="10"
     gridtolerance="10"
     guidetolerance="10"
     inkscape:pageopacity="0"
     inkscape:pageshadow="2"
     inkscape:window-width="1068"
     inkscape:window-height="723"
     id="namedview20"
     showgrid="false"
     inkscape:zoom="2.3074011"
     inkscape:cx="107.12408"
     inkscape:cy="54.846457"
     inkscape:window-x="154"
     inkscape:window-y="99"
     inkscape:window-maximized="0"
     inkscape:current-layer="svg2"
     fit-margin-top="0"
     fit-margin-left="0"
     fit-margin-right="0"
     fit-margin-bottom="0" />
  <rect
     style="opacity:1;fill:#282896;fill-opacity:1;stroke:none;stroke-width:11.53299999;stroke-miterlimit:4;stroke-dasharray:none;stroke-opacity:1"
     id="rect4152"
     width="213.29033"
     height="120"
     x="0"
     y="0" />
  <g
     id="Homepage"
     style="fill:#ffffff;fill-opacity:1;fill-rule:evenodd;stroke:none;stroke-width:1"
     transform="translate(11.645162,26.129038)">
    <g
       id="Lilt_HighFidelity_Homepage"
       transform="translate(-256,-40)"
       style="fill:#ffffff;fill-opacity:1">
      <g
         id="Full-color"
         transform="translate(256,40)"
         style="fill:#ffffff;fill-opacity:1">
        <path
           d="M 32.5,42 C 27.80545,42 24,38.19455 24,33.5 24,28.805875 27.80545,25 32.5,25 c 4.69455,0 8.5,3.805875 8.5,8.5 0,4.69455 -3.80545,8.5 -8.5,8.5 z"
           id="Path"
           style="fill:#ffffff;fill-opacity:1"
           inkscape:connector-curvature="0" />
        <path
           d="m 66,55.791667 -53.625,0 c -1.139016,0 -2.0625,-0.914259 -2.0625,-2.041667 L 10.3125,17 0,17 0,55.791667 C 0,61.429729 4.6169063,66 10.3125,66 l 45.375,0 C 61.383094,66 66,61.429729 66,55.791667 Z"
           id="path8"
           style="fill:#ffffff;fill-opacity:1"
           inkscape:connector-curvature="0" />
        <path
           d="M 55.6875,49 66,49 66,10.208333 C 66,4.5702708 61.383094,0 55.6875,0 L 10.3125,0 C 4.6169063,0 0,4.5702708 0,10.208333 l 53.625,0 c 1.138913,0 2.0625,0.914157 2.0625,2.041667 l 0,36.75 z"
           id="path10"
           style="fill:#ffffff;fill-opacity:1"
           inkscape:connector-curvature="0" />
        <polygon
           id="polygon12"
           points="89.877853,46.127115 89.877853,12 81,12 81,46.127115 81,55 89.877853,55 109,55 109,46.127115 "
           style="fill:#ffffff;fill-opacity:1" />
        <polygon
           id="polygon14"
           points="140.87785,46.127115 140.87785,12 132,12 132,46.127115 132,55 140.87785,55 160,55 160,46.127115 "
           style="fill:#ffffff;fill-opacity:1" />
        <polygon
           id="polygon16"
           points="190,20.872843 190,12 175.49081,12 166.50919,12 152,12 152,20.872843 166.50919,20.872843 166.50919,55 175.49081,55 175.49081,20.872843 "
           style="fill:#ffffff;fill-opacity:1" />
        <polygon
           id="polygon18"
           points="116,12 116,46.127115 116,55 124,55 124,46.127115 124,12 "
           style="fill:#ffffff;fill-opacity:1" />
      </g>
    </g>
  </g>
</svg>
