<?xml version="1.0" encoding="UTF-8" standalone="no"?>
<!-- Creator: CorelDRAW X6 -->

<svg
   xmlns:dc="http://purl.org/dc/elements/1.1/"
   xmlns:cc="http://creativecommons.org/ns#"
   xmlns:rdf="http://www.w3.org/1999/02/22-rdf-syntax-ns#"
   xmlns:svg="http://www.w3.org/2000/svg"
   xmlns="http://www.w3.org/2000/svg"
   xmlns:sodipodi="http://sodipodi.sourceforge.net/DTD/sodipodi-0.dtd"
   xmlns:inkscape="http://www.inkscape.org/namespaces/inkscape"
   xml:space="preserve"
   width="6.4222007in"
   height="6.4888673in"
   version="1.1"
   style="clip-rule:evenodd;fill-rule:evenodd;image-rendering:optimizeQuality;shape-rendering:geometricPrecision;text-rendering:geometricPrecision"
   viewBox="0 0 6421.9735 6488.6377"
   id="svg2"
   inkscape:version="0.91 r13725"
   sodipodi:docname="rscv-white.svg"><metadata
     id="metadata20"><rdf:RDF><cc:Work
         rdf:about=""><dc:format>image/svg+xml</dc:format><dc:type
           rdf:resource="http://purl.org/dc/dcmitype/StillImage" /><dc:title></dc:title></cc:Work></rdf:RDF></metadata><sodipodi:namedview
     pagecolor="#ffffff"
     bordercolor="#666666"
     borderopacity="1"
     objecttolerance="10"
     gridtolerance="10"
     guidetolerance="10"
     inkscape:pageopacity="0"
     inkscape:pageshadow="2"
     inkscape:window-width="1393"
     inkscape:window-height="855"
     id="namedview18"
     showgrid="false"
     inkscape:zoom="0.28095248"
     inkscape:cx="289.369"
     inkscape:cy="300.62906"
     inkscape:window-x="47"
     inkscape:window-y="1"
     inkscape:window-maximized="1"
     inkscape:current-layer="svg2"
     fit-margin-top="0"
     fit-margin-left="0"
     fit-margin-right="0"
     fit-margin-bottom="0" /><defs
     id="defs4"><style
       type="text/css"
       id="style6"><![CDATA[
    .fil0 {fill:#424242}
    .fil1 {fill:white}
   ]]></style></defs><path
     style="fill:#ffffff;fill-opacity:1"
     d="M 150.60234,0 0,83.93803 0,6226.9281 l 150.60234,261.7095 6142.99006,0 128.3809,-261.7095 0,-6142.99007 C 6421.9733,77.01372 6293.5924,0 6293.5924,0 Z m 2009.00006,594.92251 2852.0042,0 0,1.01996 c 44,0 79.9884,35.9885 79.9884,79.9885 l 0,4960.00243 c 0,44 -35.9884,80.0101 -79.9884,80.0101 l -3579.0184,0 c -44,0 -79.9885,-36.0101 -79.9885,-80.0101 l 0,-4233.0099 c 0,-21.0001 7.0026,-40.9859 23.0026,-56.9859 l 726.9925,-727.01416 c 15.0001,-15.00003 35.0076,-24.00093 57.0076,-24.00093 z m 1645.9921,638.01999 c -102,0 -194.9916,41.9805 -261.9915,108.9805 -67.0001,67 -109.0023,159.0133 -109.0023,262.0133 0,102 42.0022,194.9916 109.0023,261.9916 66.9999,67 159.9915,109.0022 261.9915,109.0022 102,0 195.0133,-42.0022 262.0134,-109.0022 66.9999,-67 108.9804,-158.9916 108.9804,-261.9916 0,-102 -41.9805,-195.0133 -108.9804,-262.0133 -67.0001,-67 -159.0134,-108.9805 -262.0134,-108.9805 z m -248.2768,836.9062 c -7.8618,0.1422 -15.8438,1.4547 -23.7187,4.0797 -123.0001,39.9999 -230.0023,118.9973 -305.0023,221.9973 -74,100 -117.0098,223.9969 -117.0098,356.9969 l 1362.0613,61.977 c 14.9761,-14.999 24.9556,-36.9808 24.9556,-59.9589 l 0,-0.9977 c 0,-133 -44.0097,-256.0186 -117.0097,-357.0186 -74,-102.0001 -178.9893,-179.9992 -299.9894,-220.9992 -1,-0.9999 -3.0146,-0.9966 -4.0146,-1.9964 -42,-14 -86.9947,8.9965 -100.9947,50.9965 -12,35.9999 -34.9916,67.0159 -65.9915,89.0159 -29.0001,22 -65.0094,33.9832 -105.0094,33.9832 -39,0 -75.9876,-12.9831 -104.9875,-33.9832 -29.0001,-21 -51.0169,-50.0031 -64.0169,-84.0031 -1,-1 -0.9966,-3.0128 -1.9965,-5.0128 -11.375,-34.1251 -43.208,-55.692 -77.2759,-55.0762 z m -446.729,584.0938 0,0.9978 c 0,16.0001 4.0004,29.9889 12.0005,42.9889 3,6 7.9986,12.0134 12.9986,17.0134 15.0001,14.9999 36.0022,24.9991 60.0022,24.9991 l 1218.0125,0 c 22,0 41.9859,-8.0045 56.9859,-22.0044 l 0.9977,-0.9989 1.0633,-1.041 z m -1205.9903,492.9947 c -44,0 -80.0102,35.9885 -80.0102,79.9885 0,44 36.0102,80.0102 80.0102,80.0102 l 2634.9979,0 c 44,0 80.0103,-36.0102 80.0103,-80.0102 0,-44 -36.0103,-79.9885 -80.0103,-79.9885 z m 0,582.9873 c -44,0 -80.0102,36.0101 -80.0102,80.0101 0,44 36.0102,79.9885 80.0102,79.9885 l 2634.9979,0 c 44,0 80.0103,-35.9885 80.0103,-79.9885 0,-44 -36.0103,-80.0101 -80.0103,-80.0101 z m 0,583.0088 c -44,0 -80.0102,36.0103 -80.0102,80.0103 0,44 36.0102,79.9884 80.0102,79.9884 l 2634.9979,0 c 44,0 80.0103,-35.9884 80.0103,-79.9884 0,-44 -36.0103,-80.0103 -80.0103,-80.0103 z m 0,583.0089 c -44,0 -80.0102,35.9885 -80.0102,79.9885 0,44 36.0102,80.0102 80.0102,80.0102 l 1345.0045,0 c 44,0 79.9885,-36.0102 79.9885,-80.0102 0,-44 -35.9885,-79.9885 -79.9885,-79.9885 z"
     id="path10"
     inkscape:connector-curvature="0"
     sodipodi:nodetypes="ccccccsccsccssssssccsssssssssssccccsscccscssccscscsssccccssssssssssssssssssssssssssss" /><g
     id="Master_x0020_Layer_x0020_3"
     transform="translate(-1451.4026,-1518.067)"><metadata
       id="CorelCorpID_1Corel-Layer" /></g></svg>