<?xml version="1.0" encoding="UTF-8" standalone="no"?>
<!-- Created with Inkscape (http://www.inkscape.org/) -->

<svg
   xmlns:dc="http://purl.org/dc/elements/1.1/"
   xmlns:cc="http://creativecommons.org/ns#"
   xmlns:rdf="http://www.w3.org/1999/02/22-rdf-syntax-ns#"
   xmlns:svg="http://www.w3.org/2000/svg"
   xmlns="http://www.w3.org/2000/svg"
   xmlns:sodipodi="http://sodipodi.sourceforge.net/DTD/sodipodi-0.dtd"
   xmlns:inkscape="http://www.inkscape.org/namespaces/inkscape"
   width="16"
   height="11.733334"
   id="svg2"
   version="1.1"
   inkscape:version="0.92.1 unknown"
   sodipodi:docname="speaker.svg">
  <defs
     id="defs4" />
  <sodipodi:namedview
     id="base"
     pagecolor="#ffffff"
     bordercolor="#666666"
     borderopacity="1.0"
     inkscape:pageopacity="0.0"
     inkscape:pageshadow="2"
     inkscape:zoom="32"
     inkscape:cx="7.9771629"
     inkscape:cy="2.8771883"
     inkscape:document-units="px"
     inkscape:current-layer="layer1"
     showgrid="false"
     showborder="true"
     inkscape:window-width="1920"
     inkscape:window-height="1166"
     inkscape:window-x="1920"
     inkscape:window-y="0"
     inkscape:window-maximized="1"
     fit-margin-top="0"
     fit-margin-left="0"
     fit-margin-right="0"
     fit-margin-bottom="0"
     inkscape:showpageshadow="false"
     inkscape:lockguides="true">
    <inkscape:grid
       type="xygrid"
       id="grid2985"
       empspacing="8"
       visible="true"
       enabled="true"
       snapvisiblegridlinesonly="true"
       spacingx="0.13333333"
       spacingy="0.13333333"
       originx="-22.4"
       originy="-1.0666852" />
  </sodipodi:namedview>
  <metadata
     id="metadata7">
    <rdf:RDF>
      <cc:Work
         rdf:about="">
        <dc:format>image/svg+xml</dc:format>
        <dc:type
           rdf:resource="http://purl.org/dc/dcmitype/StillImage" />
        <dc:title />
      </cc:Work>
    </rdf:RDF>
  </metadata>
  <g
     inkscape:label="Layer 1"
     inkscape:groupmode="layer"
     id="layer1"
     transform="translate(-22.4,-1109.7197)">
    <path
       style="fill:#000000;fill-opacity:1;stroke:#0000ff;stroke-width:0;stroke-linecap:butt;stroke-linejoin:miter;stroke-miterlimit:4;stroke-dashoffset:1009.1338501;stroke-opacity:0"
       d="m 29.866667,1109.7197 -3.733334,3.2 H 22.4 v 5.3333 h 3.733333 l 3.733334,3.2 z m 6.333333,0.4666 -1,0.4334 c 0.99818,1.4028 1.6,3.1158 1.6,4.9666 0,1.8509 -0.60182,3.5638 -1.6,4.9667 l 1,0.4333 c 1.049895,-1.5337 1.666667,-3.3985 1.666667,-5.4 0,-2.0014 -0.616772,-3.8662 -1.666667,-5.4 z m -2.033333,0.8667 -1,0.4 c 0.939401,1.1163 1.5,2.5561 1.5,4.1333 0,1.5773 -0.560599,3.0171 -1.5,4.1334 l 1,0.4 c 0.975977,-1.26 1.566666,-2.8175 1.566666,-4.5334 0,-1.7158 -0.590689,-3.2733 -1.566666,-4.5333 z m -2.066667,0.8333 -1.066667,0.4667 c 0.916476,0.7811 1.5,1.9295 1.5,3.2333 0,1.3039 -0.583524,2.4522 -1.5,3.2334 L 32.1,1119.2863 c 0.932612,-0.9584 1.5,-2.2638 1.5,-3.7 0,-1.4361 -0.567388,-2.7417 -1.5,-3.7 z"
       id="path1339"
       inkscape:connector-curvature="0" />
  </g>
</svg>
